<?xml version="1.0" standalone="no"?>
<!DOCTYPE svg PUBLIC "-//W3C//DTD SVG 20010904//EN"
 "http://www.w3.org/TR/2001/REC-SVG-20010904/DTD/svg10.dtd">
<svg version="1.0" xmlns="http://www.w3.org/2000/svg"
 width="369.000000pt" height="369.000000pt" viewBox="0 0 369.000000 369.000000"
 preserveAspectRatio="xMidYMid meet">

<g transform="translate(0.000000,369.000000) scale(0.100000,-0.100000)"
fill="#000000" stroke="none">
<path d="M0 1845 l0 -1845 1845 0 1845 0 0 1845 0 1845 -1845 0 -1845 0 0
-1845z m2033 1224 c9 -17 14 -36 10 -41 -3 -7 -1 -8 5 -4 14 8 56 -70 46 -86
-4 -6 -3 -8 3 -5 10 6 40 -52 57 -110 7 -21 3 -20 -63 14 -39 20 -71 41 -71
47 0 6 -21 45 -46 86 -49 77 -50 106 -6 104 13 0 18 4 15 13 -11 27 33 12 50
-18z m130 -94 c42 -85 100 -264 78 -239 -4 5 -16 38 -26 74 -9 36 -36 103 -58
150 -53 109 -52 107 -39 95 6 -5 26 -41 45 -80z m-194 -17 c22 -40 39 -74 37
-76 -6 -5 -170 38 -179 48 -10 9 73 100 91 100 6 0 29 -32 51 -72z m266 42
c26 -16 39 -36 59 -93 34 -94 53 -173 62 -250 l7 -62 -27 33 c-19 22 -33 55
-43 105 -18 88 -47 176 -78 240 -13 26 -22 47 -18 47 3 0 20 -9 38 -20z m-41
-26 c3 -8 2 -12 -4 -9 -6 3 -10 10 -10 16 0 14 7 11 14 -7z m358 -371 c4 -64
4 -149 -2 -209 -9 -101 -44 -282 -56 -293 -8 -7 4 83 16 124 28 94 35 348 14
475 -5 28 -4 33 6 23 8 -7 16 -56 22 -120z m-188 -170 c-3 -54 -9 -101 -13
-105 -3 -3 -15 -8 -26 -10 -22 -3 -21 -13 -9 130 7 78 8 82 31 82 l24 0 -7
-97z m-98 -20 c-4 -54 -12 -102 -18 -108 -8 -7 -9 -5 -4 9 3 10 9 59 13 107 3
49 8 89 11 89 3 0 2 -44 -2 -97z m-63 30 c-2 -27 -9 -76 -15 -111 -10 -63 -11
-63 -72 -102 -33 -21 -61 -38 -62 -37 -1 1 7 36 17 77 11 41 22 99 26 128 5
44 10 56 30 65 19 8 26 8 32 -2 6 -9 10 -7 14 8 3 12 12 21 20 21 11 0 14 -10
10 -47z m-113 -16 c0 -26 -22 -133 -38 -187 -12 -41 -31 -71 -72 -115 -79 -85
-103 -119 -154 -219 -37 -71 -55 -96 -98 -128 -44 -33 -157 -98 -171 -98 -7 0
11 108 24 144 7 20 18 36 24 36 19 1 123 95 173 157 67 83 105 153 137 248 31
92 42 107 110 146 56 32 65 35 65 16z m-186 -139 c-4 -13 -6 -24 -5 -26 0 -1
-15 -34 -34 -73 -63 -124 -138 -217 -230 -283 -22 -16 -7 2 33 39 111 103 184
212 222 333 7 23 15 40 18 38 2 -3 1 -15 -4 -28z m-135 -539 c-13 -47 -15 -55
-17 -79 -2 -19 -58 -54 -72 -45 -6 4 -9 1 -8 -5 2 -7 -25 -25 -59 -41 l-63
-28 0 54 0 53 73 40 c39 22 90 54 112 70 22 17 41 29 43 27 2 -2 -2 -23 -9
-46z m1371 -168 c-8 -3 -15 -10 -15 -16 0 -26 -51 -124 -62 -120 -7 2 -17 -5
-23 -15 -7 -12 -7 -20 -1 -20 5 0 12 7 14 15 4 12 5 11 3 -2 -1 -16 -56 -39
-56 -24 0 5 18 41 39 80 22 39 42 80 46 90 4 12 16 18 38 18 18 1 25 -2 17 -6z
m228 -10 c-7 -11 -15 -18 -18 -16 -3 2 -11 -16 -18 -40 -6 -23 -18 -50 -26
-58 -8 -8 -13 -17 -10 -20 3 -3 -1 -18 -10 -35 -8 -16 -12 -33 -8 -37 4 -5 2
-5 -4 -2 -7 4 -16 -10 -23 -34 -21 -69 -21 -38 0 36 11 39 22 105 26 148 l6
77 49 0 c45 0 47 -1 36 -19z m109 -38 c-11 -122 -18 -150 -48 -211 -17 -35
-49 -90 -70 -122 -21 -33 -39 -64 -39 -70 0 -6 -7 -13 -15 -16 -8 -4 -13 -10
-10 -14 3 -5 1 -11 -5 -15 -6 -3 -25 -30 -44 -58 -18 -29 -42 -62 -52 -73 -60
-68 -99 -120 -98 -131 1 -7 -1 -12 -5 -11 -18 2 -34 -3 -28 -9 9 -8 -83 -74
-94 -67 -5 3 -9 1 -9 -4 0 -14 -101 -59 -183 -82 -92 -26 -111 -25 -67 1 50
31 297 282 356 361 83 113 89 123 86 131 -1 5 1 6 6 3 12 -7 45 52 36 66 -4 6
-3 8 4 5 10 -7 31 24 92 138 18 33 40 74 50 90 9 17 28 56 40 88 23 56 24 57
63 57 l39 0 -5 -57z m-1797 8 c-41 -21 -86 -41 -100 -45 -14 -4 13 13 60 37
47 24 92 44 100 45 8 0 -19 -16 -60 -37z m1479 -48 c-8 -70 -16 -90 -36 -97
-23 -9 -44 6 -33 24 9 13 10 13 10 0 1 -13 18 24 51 108 14 35 16 26 8 -35z
m-1044 5 c-92 -82 -201 -158 -298 -208 -91 -47 -201 -90 -229 -90 -28 0 13 23
82 46 39 14 102 41 138 60 80 43 229 140 234 152 3 8 108 82 117 82 2 0 -18
-19 -44 -42z m-360 -28 c-9 -15 -176 -81 -267 -105 -221 -58 -449 -51 -683 22
-27 9 -54 20 -60 24 -18 17 102 9 201 -12 147 -32 331 -32 489 1 66 13 122 27
125 30 3 3 46 23 95 46 85 38 90 39 98 21 4 -10 5 -22 2 -27z m-1344 -73 c105
-69 309 -176 309 -162 0 2 15 -2 34 -10 18 -8 35 -13 37 -12 3 1 1 -2 -4 -8
-17 -22 -263 89 -375 169 -29 21 -52 40 -52 42 0 10 20 2 51 -19z m2995 -185
c-45 -89 -183 -286 -240 -342 -31 -30 -56 -49 -56 -43 0 7 5 15 10 18 8 5 48
54 148 180 8 10 63 97 110 173 12 20 28 48 34 61 7 13 14 19 16 13 2 -6 -8
-33 -22 -60z m-381 -222 c-10 -11 -22 -20 -28 -20 -5 0 1 9 14 20 31 25 37 25
14 0z m-57 -46 c-16 -8 -28 -18 -28 -22 0 -4 -21 -30 -47 -57 -26 -28 -46 -54
-45 -59 2 -5 -4 -6 -12 -3 -9 4 -15 1 -13 -6 1 -7 -4 -11 -11 -9 -8 1 -11 -2
-8 -7 3 -5 -6 -17 -21 -26 -14 -10 -41 -33 -60 -51 -18 -19 -37 -35 -41 -36
-4 -2 -6 -6 -5 -10 2 -4 -6 -10 -17 -13 -11 -4 -18 -10 -15 -14 11 -18 -116
-22 -257 -7 -16 1 -38 3 -50 4 -23 2 -23 2 2 15 56 30 130 79 130 87 0 8 38
23 53 21 4 -1 7 6 7 15 0 10 6 14 14 11 8 -3 13 1 12 11 -1 10 11 18 34 23 19
4 59 12 88 18 70 14 172 56 241 97 31 19 61 34 66 34 6 -1 -2 -8 -17 -16z
m-441 -140 c-3 -4 -17 -8 -30 -9 -29 -4 -172 -98 -156 -104 6 -2 14 1 18 6 3
6 17 16 31 22 22 11 21 10 -5 -13 -16 -14 -36 -25 -43 -26 -7 0 -15 -7 -18
-15 -8 -20 -33 -26 -68 -17 -28 8 -27 9 59 62 48 30 99 65 114 77 17 15 40 22
65 23 22 0 36 -3 33 -6z m-63 -48 c-16 -14 -33 -25 -39 -25 -5 0 5 13 24 29
19 16 37 28 39 25 2 -2 -9 -15 -24 -29z"/>
<path d="M2010 3027 c0 -5 9 -20 20 -34 11 -14 20 -22 20 -17 -1 12 -39 61
-40 51z"/>
<path d="M2060 2991 c0 -6 4 -13 10 -16 6 -3 7 1 4 9 -7 18 -14 21 -14 7z"/>
<path d="M2060 2931 c0 -6 4 -13 10 -16 6 -3 7 1 4 9 -7 18 -14 21 -14 7z"/>
<path d="M2141 2314 c0 -11 3 -14 6 -6 3 7 2 16 -1 19 -3 4 -6 -2 -5 -13z"/>
<path d="M2131 2274 c0 -11 3 -14 6 -6 3 7 2 16 -1 19 -3 4 -6 -2 -5 -13z"/>
<path d="M1684 1664 c-18 -14 -18 -15 4 -4 12 6 22 13 22 15 0 8 -5 6 -26 -11z"/>
<path d="M1624 1635 c-10 -8 -14 -14 -9 -14 6 0 19 6 29 14 11 8 15 15 10 15
-6 0 -19 -7 -30 -15z"/>
<path d="M3073 1500 c-6 -17 -8 -30 -3 -30 8 0 24 50 18 56 -2 2 -9 -10 -15
-26z"/>
<path d="M3286 1132 c-3 -5 1 -9 9 -9 8 0 12 4 9 9 -3 4 -7 8 -9 8 -2 0 -6 -4
-9 -8z"/>
<path d="M3225 1050 c-3 -5 -1 -10 4 -10 6 0 11 5 11 10 0 6 -2 10 -4 10 -3 0
-8 -4 -11 -10z"/>
<path d="M3071 847 c-13 -21 -12 -21 5 -5 10 10 16 20 13 22 -3 3 -11 -5 -18
-17z"/>
<path d="M3040 820 c0 -5 -12 -21 -27 -35 -31 -28 -23 -34 10 -7 20 15 35 52
22 52 -3 0 -5 -4 -5 -10z"/>
<path d="M2610 779 c0 -5 5 -7 10 -4 6 3 10 8 10 11 0 2 -4 4 -10 4 -5 0 -10
-5 -10 -11z"/>
<path d="M2539 723 c-13 -15 -12 -15 9 -4 23 12 28 21 13 21 -5 0 -15 -7 -22
-17z"/>
<path d="M2475 679 c-4 -6 -5 -12 -2 -15 2 -3 7 2 10 11 7 17 1 20 -8 4z"/>
<path d="M2299 673 c-13 -15 -12 -15 9 -4 23 12 28 21 13 21 -5 0 -15 -7 -22
-17z"/>
</g>
</svg>
